<svg xmlns="http://www.w3.org/2000/svg" version="1.1" xmlns:xlink="http://www.w3.org/1999/xlink" xmlns:svgjs="http://svgjs.dev/svgjs" width="1000" height="1000" viewBox="0 0 1000 1000"><rect width="1000" height="1000" fill="#ffffff"></rect><g transform="matrix(0.7,0,0,0.7,149.57575757575756,282.1265587044535)"><svg viewBox="0 0 396 247" data-background-color="#ffffff" preserveAspectRatio="xMidYMid meet" height="623" width="1000" xmlns="http://www.w3.org/2000/svg" xmlns:xlink="http://www.w3.org/1999/xlink"><g id="tight-bounds" transform="matrix(1,0,0,1,0.2400000000000091,-0.09999999999999432)"><svg viewBox="0 0 395.52 247.2" height="247.2" width="395.52"><g><svg></svg></g><g><svg viewBox="0 0 395.52 247.2" height="247.2" width="395.52"><g><path d="M55.039 247.2l26.403-45.732h2.028l-25.334 43.88h279.248l-25.334-43.88 2.028 0 26.403 45.732zM197.76 0l26.403 45.732h-2.028l-24.375-42.22-24.376 42.22-2.027 0z" fill="#729343" fill-rule="nonzero" stroke="none" stroke-width="1" stroke-linecap="butt" stroke-linejoin="miter" stroke-miterlimit="10" stroke-dasharray="" stroke-dashoffset="0" font-family="none" font-weight="none" font-size="none" text-anchor="none" style="mix-blend-mode: normal" data-fill-palette-color="tertiary"></path></g><g transform="matrix(1,0,0,1,37.60549966568294,67.97999999999999)"><svg viewBox="0 0 320.3090006686341 111.24" height="111.24" width="320.3090006686341"><g><svg viewBox="0 0 395.52 137.36000146157747" height="111.24" width="320.3090006686341"><g transform="matrix(1,0,0,1,0,100.63063975944982)"><svg viewBox="0 0 395.52 36.729361702127655" height="36.729361702127655" width="395.52"><g><svg viewBox="0 0 395.52 36.729361702127655" height="36.729361702127655" width="395.52"><g><svg viewBox="0 0 395.52 36.729361702127655" height="36.729361702127655" width="395.52"><g transform="matrix(1,0,0,1,0,0)"><svg width="395.52" viewBox="4.05 -36.85 451.17 41.9" height="36.729361702127655" data-palette-color="#729343"><path d="M15.95-36.55L15.95-36.55Q23.65-36.55 29.15-32.05L29.15-32.05Q31.85-29.85 33.4-26.23 34.95-22.6 34.95-18 34.95-13.4 33.4-9.8 31.85-6.2 29.15-4L29.15-4Q23.7 0.45 15.95 0.45L15.95 0.45Q9.75 0.45 7.35-1.25 4.95-2.95 4.95-6.55L4.95-6.55 5-30.95Q5-33.35 4.05-34.55L4.05-34.55Q9.7-36.55 15.95-36.55ZM15.95-3.3L15.95-3.3Q21.75-3.3 25.58-7.15 29.4-11 29.4-18 29.4-25 25.58-28.88 21.75-32.75 15.95-32.75L15.95-32.75Q13.1-32.75 10.35-31.9L10.35-31.9 10.25-6.4Q10.25-4.7 11.3-4 12.35-3.3 15.95-3.3ZM49.75-6.95Q52.85-3.15 57.65-3.15 62.45-3.15 65.05-7.45L65.05-7.45Q67.25-11 67.25-16.3L67.25-16.3Q67.25-17.4 67.15-18.6L67.15-18.6Q66.7-25.35 63.6-29.18 60.5-33 55.67-33 50.85-33 48.25-28.7L48.25-28.7Q46.05-25.1 46.05-19.8L46.05-19.8Q46.05-11.5 49.75-6.95L49.75-6.95ZM56.7-36.55Q64.2-36.55 68.35-31.55 72.5-26.55 72.5-18.13 72.5-9.7 68.32-4.63 64.15 0.45 56.67 0.45 49.2 0.45 44.97-4.6 40.75-9.65 40.75-18.05 40.75-26.45 44.97-31.5 49.2-36.55 56.7-36.55ZM81.5-3.75L81.5-3.75 81.5-32.45Q81.5-34.2 80.1-34.8L80.1-34.8Q81.4-36.55 83.4-36.55 85.4-36.55 86.65-35.7 87.9-34.85 89.15-32.9L89.15-32.9 105.3-7.05 105.3-32.45Q105.3-34.2 103.95-34.8L103.95-34.8Q105.15-36.55 107.15-36.55L107.15-36.55Q110.6-36.55 110.6-32.4L110.6-32.4 110.6-3.7Q110.6-1.9 111.65-1L111.65-1Q110.55 0.45 108.55 0.45 106.55 0.45 105.02-0.78 103.5-2 101.75-4.75L101.75-4.75 86.75-28.4 86.75-3.7Q86.75-1.85 88.1-1.3L88.1-1.3Q86.8 0.45 84.9 0.45L84.9 0.45Q81.5 0.45 81.5-3.75ZM132.79-27.85L127.04-11.6 137.84-11.6 132.79-27.85ZM144.89 0.45L144.89 0.45Q143.39 0.45 142.49-0.3 141.59-1.05 140.89-2.95L140.89-2.95 139.14-8.05 125.74-8.05 123.84-3.15Q122.49 0.45 120.14 0.45L120.14 0.45Q119.09 0.45 118.24-0.1 117.39-0.65 117.04-1.45L117.04-1.45Q118.24-1.95 119.14-4.2L119.14-4.2 130.44-32.95Q129.84-34.45 128.94-35.15L128.94-35.15Q130.24-36.55 131.94-36.55 133.64-36.55 134.47-35.63 135.29-34.7 136.09-32.5L136.09-32.5 145.89-4.45Q146.74-2.05 148.24-1.25L148.24-1.25Q147.29 0.45 144.89 0.45ZM155.04-36.15L155.04-36.15 173.89-36.15Q177.29-36.15 177.29-33.45L177.29-33.45Q177.29-32.25 176.34-31.3L176.34-31.3Q174.84-32.05 172.29-32.05L172.29-32.05 166.24-32.05 166.24-3.7Q166.24-1.9 167.59-1.3L167.59-1.3Q166.39 0.45 164.44 0.45L164.44 0.45Q160.99 0.45 160.99-3.75L160.99-3.75 160.99-32.05 153.39-32.05Q150.04-32.05 150.04-34.75L150.04-34.75Q150.04-35.95 150.94-36.85L150.94-36.85Q152.39-36.15 155.04-36.15ZM192.34-4.25L192.34-4.25 201.89-4.25Q204.94-4.25 206.69-6.3L206.69-6.3Q208.19-5.55 208.19-3.78 208.19-2 206.79-1 205.39 0 202.44 0L202.44 0 191.84 0Q187.64 0 185.66-1.73 183.69-3.45 183.69-7.3L183.69-7.3 183.69-31.8Q183.69-33.6 182.29-34.2L182.29-34.2Q183.69-36.15 186.44-36.15L186.44-36.15 202.49-36.15Q208.19-36.15 208.19-33.1L208.19-33.1Q208.19-31.4 206.69-30.65L206.69-30.65Q205.09-31.85 201.89-31.85L201.89-31.85 188.94-31.85 188.94-21 198.44-21Q201.54-21 202.84-20.45 204.14-19.9 204.14-18.4 204.14-16.9 202.79-16.05L202.79-16.05Q201.24-16.75 197.99-16.75L197.99-16.75 188.94-16.75 188.94-7.7Q188.94-5.85 189.74-5.05 190.54-4.25 192.34-4.25ZM219.44-12.35L219.44-12.35 229.14-12.35 229.14-29.5Q229.14-30.35 228.54-30.35L228.54-30.35Q227.59-30.35 224.99-27.1 222.39-23.85 220.14-19.73 217.89-15.6 217.89-13.5L217.89-13.5Q217.89-12.85 218.24-12.6 218.59-12.35 219.44-12.35ZM234.34-32.6L234.34-12.35 236.34-12.35Q238.84-12.35 239.84-13.25L239.84-13.25Q240.49-12.5 240.49-11.28 240.49-10.05 239.19-9.28 237.89-8.5 235.74-8.5L235.74-8.5 234.34-8.5 234.34-3.7Q234.34-1.9 235.69-1.3L235.69-1.3Q234.54 0.45 232.54 0.45L232.54 0.45Q229.14 0.45 229.14-3.75L229.14-3.75 229.14-8.5 217.84-8.5Q213.79-8.5 213.79-11.8L213.79-11.8Q213.79-15.25 216.96-21.23 220.14-27.2 224.44-31.88 228.74-36.55 231.54-36.55 234.34-36.55 234.34-32.6L234.34-32.6ZM272.68-30.15L272.68-30.15Q272.68-28.6 271.66-27.8 270.63-27 269.18-27 267.73-27 266.68-27.55L266.68-27.55Q266.73-28 266.73-28.45L266.73-28.45Q266.73-30.25 265.41-31.63 264.08-33 260.98-33L260.98-33Q256.68-33 253.51-29.13 250.33-25.25 250.33-18.28 250.33-11.3 253.36-7.8 256.38-4.3 261.73-4.3L261.73-4.3Q264.68-4.3 267.31-5.58 269.93-6.85 271.53-8.6L271.53-8.6Q272.73-8.25 272.73-6.55L272.73-6.55Q272.73-4.35 269.06-1.95 265.38 0.45 260.33 0.45L260.33 0.45Q253.33 0.45 249.01-4.38 244.68-9.2 244.68-17.63 244.68-26.05 249.51-31.3 254.33-36.55 261.83-36.55L261.83-36.55Q266.38-36.55 269.53-34.68 272.68-32.8 272.68-30.15ZM310.03-32.4L310.03-32.4 310.03-3.7Q310.03-1.85 311.38-1.3L311.38-1.3Q310.08 0.45 308.18 0.45L308.18 0.45Q304.78 0.45 304.78-3.75L304.78-3.75 304.78-16.3 286.48-16.3 286.48-3.7Q286.48-1.9 287.83-1.3L287.83-1.3Q286.63 0.45 284.63 0.45L284.63 0.45Q281.23 0.45 281.23-3.75L281.23-3.75 281.23-32.45Q281.23-34.2 279.88-34.8L279.88-34.8Q281.03-36.55 283.03-36.55L283.03-36.55Q286.48-36.55 286.48-32.4L286.48-32.4 286.48-20 304.78-20 304.78-32.45Q304.78-34.2 303.43-34.8L303.43-34.8Q304.58-36.55 306.58-36.55L306.58-36.55Q310.03-36.55 310.03-32.4ZM332.18-27.85L326.43-11.6 337.23-11.6 332.18-27.85ZM344.28 0.45L344.28 0.45Q342.78 0.45 341.88-0.3 340.98-1.05 340.28-2.95L340.28-2.95 338.53-8.05 325.13-8.05 323.23-3.15Q321.88 0.45 319.53 0.45L319.53 0.45Q318.48 0.45 317.63-0.1 316.78-0.65 316.43-1.45L316.43-1.45Q317.63-1.95 318.53-4.2L318.53-4.2 329.83-32.95Q329.23-34.45 328.33-35.15L328.33-35.15Q329.63-36.55 331.33-36.55 333.03-36.55 333.85-35.63 334.68-34.7 335.48-32.5L335.48-32.5 345.28-4.45Q346.13-2.05 347.63-1.25L347.63-1.25Q346.68 0.45 344.28 0.45ZM354.03-3.75L354.03-3.75 354.03-32.45Q354.03-34.2 352.63-34.8L352.63-34.8Q353.93-36.55 355.93-36.55 357.93-36.55 359.18-35.7 360.43-34.85 361.68-32.9L361.68-32.9 377.83-7.05 377.83-32.45Q377.83-34.2 376.48-34.8L376.48-34.8Q377.68-36.55 379.68-36.55L379.68-36.55Q383.13-36.55 383.13-32.4L383.13-32.4 383.13-3.7Q383.13-1.9 384.18-1L384.18-1Q383.08 0.45 381.08 0.45 379.08 0.45 377.55-0.78 376.03-2 374.28-4.75L374.28-4.75 359.28-28.4 359.28-3.7Q359.28-1.85 360.63-1.3L360.63-1.3Q359.33 0.45 357.43 0.45L357.43 0.45Q354.03 0.45 354.03-3.75ZM419.42 5.05L419.42 5.05Q416.02 5.05 416.02 0.9L416.02 0.9 416.02-3.85Q414.57-2 412.12-0.78 409.67 0.45 406.62 0.45L406.62 0.45Q400.37 0.45 395.92-4.05 391.47-8.55 391.47-16.35L391.47-16.35Q391.47-25.3 396.67-30.93 401.87-36.55 410.47-36.55L410.47-36.55Q415.37-36.55 418.52-34.58 421.67-32.6 421.67-29.9L421.67-29.9Q421.67-28.55 420.62-27.7 419.57-26.85 418.17-26.85 416.77-26.85 415.72-27.4L415.72-27.4Q415.77-27.7 415.77-28.05L415.77-28.05Q415.77-30.1 414.17-31.55 412.57-33 409.32-33L409.32-33Q403.77-33 400.5-28.88 397.22-24.75 397.2-17.9 397.17-11.05 399.97-7.45 402.77-3.85 407.77-3.85L407.77-3.85Q413.57-3.85 416.07-9.05L416.07-9.05 416.12-15.05 413.57-15.05Q410.87-15.05 407.87-14.85L407.87-14.85Q407.22-15.75 407.22-16.75L407.22-16.75Q407.22-18.1 408.97-18.65 410.72-19.2 414.85-19.2 418.97-19.2 420.17-18.32 421.37-17.45 421.37-15.15L421.37-15.15 421.27 0.9Q421.27 2.7 422.62 3.3L422.62 3.3Q421.47 5.05 419.42 5.05ZM439.37-4.25L439.37-4.25 448.92-4.25Q451.97-4.25 453.72-6.3L453.72-6.3Q455.22-5.55 455.22-3.78 455.22-2 453.82-1 452.42 0 449.47 0L449.47 0 438.87 0Q434.67 0 432.7-1.73 430.72-3.45 430.72-7.3L430.72-7.3 430.72-31.8Q430.72-33.6 429.32-34.2L429.32-34.2Q430.72-36.15 433.47-36.15L433.47-36.15 449.52-36.15Q455.22-36.15 455.22-33.1L455.22-33.1Q455.22-31.4 453.72-30.65L453.72-30.65Q452.12-31.85 448.92-31.85L448.92-31.85 435.97-31.85 435.97-21 445.47-21Q448.57-21 449.87-20.45 451.17-19.9 451.17-18.4 451.17-16.9 449.82-16.05L449.82-16.05Q448.27-16.75 445.02-16.75L445.02-16.75 435.97-16.75 435.97-7.7Q435.97-5.85 436.77-5.05 437.57-4.25 439.37-4.25Z" opacity="1" transform="matrix(1,0,0,1,0,0)" fill="#000000" class="undefined-text-0" data-fill-palette-color="primary" id="text-0"></path></svg></g></svg></g></svg></g></svg></g><g transform="matrix(1,0,0,1,156.11560091346658,0)"><svg viewBox="0 0 83.28879817306684 83.28879817306684" height="83.28879817306684" width="83.28879817306684"><g><svg></svg></g><g id="icon-0"><svg viewBox="0 0 83.28879817306684 83.28879817306684" height="83.28879817306684" width="83.28879817306684"><g><path d="M0 41.644c0-23 18.645-41.644 41.644-41.644 23 0 41.644 18.645 41.645 41.644 0 23-18.645 41.644-41.645 41.645-23 0-41.644-18.645-41.644-41.645zM41.644 79.977c21.17 0 38.332-17.162 38.333-38.333 0-21.17-17.162-38.332-38.333-38.332-21.17 0-38.332 17.162-38.332 38.332 0 21.17 17.162 38.332 38.332 38.333z" data-fill-palette-color="tertiary" fill="#729343" stroke="transparent"></path></g><g transform="matrix(1,0,0,1,20.329643794509472,23.181459656282193)"><svg viewBox="0 0 42.62951058404789 36.92587886050245" height="36.92587886050245" width="42.62951058404789"><g><svg xmlns="http://www.w3.org/2000/svg" xmlns:xlink="http://www.w3.org/1999/xlink" version="1.1" x="0" y="0" viewBox="18.05827143333234 23.1 63.84172856666767 55.30000000000002" enable-background="new 0 0 100 100" xml:space="preserve" height="36.92587886050245" width="42.62951058404789" class="icon-ju-0" data-fill-palette-color="accent" id="ju-0"><g fill="#729343" data-fill-palette-color="accent"><g fill="#729343" data-fill-palette-color="accent"><g fill="#729343" data-fill-palette-color="accent"><g fill="#729343" data-fill-palette-color="accent"><g fill="#729343" data-fill-palette-color="accent"><path d="M68 54.7c0.3 0.1 0.5 0.3 0.8 0.3 0.7 0 1.2-0.7 1.2-1.4 0-0.3-0.1-0.6-0.3-0.9-0.6-0.8-2-1-2.9-1v-0.8c0-0.3-0.1-0.5-0.5-0.5-0.4 0-0.5 0.2-0.5 0.5v0.8c-2.2 0.2-4 1.7-4 4.1 0 1.3 0.6 2.2 2.2 3 0.5 0.2 1.1 0.5 1.8 0.6v2.8c-1.2 0-2.1-0.8-2.8-0.8-0.7 0-1.3 0.7-1.3 1.5 0 1.3 1.7 1.8 3 2 0.4 0.1 0.7 0.1 1 0.1v0.8c0 0.3 0.1 0.5 0.5 0.5 0.4 0 0.5-0.2 0.5-0.5V65c1.7-0.1 4.1-1.4 4.1-4.2 0-0.6-0.1-1.1-0.3-1.5-0.6-1.4-2.2-2-3.7-2.5v-0.9-1.7C67.2 54.3 67.6 54.5 68 54.7zM78.5 48.4c2.2 2.7 3.4 6.1 3.4 9.8 0 8.7-7 15.7-15.7 15.7-3.2 0-6.2-1-8.7-2.6-3.3 2.8-6.1 5.2-6.7 5.7l-1.6 1.4L47.7 77c-2.4-2-13.2-11.2-17.1-15-5.3-5.2-17.8-17.5-10.1-30.3 3.2-5.4 9.1-8.6 15.8-8.6 5 0 9.7 1.9 13 5.1 3.3-3.3 8-5.1 13-5.1 6.7 0 12.5 3.2 15.8 8.6C81.6 37.6 80.9 43.4 78.5 48.4zM74.5 44.9c1.3-3.5 1.3-7.1-0.8-10.7-2.3-3.8-6.6-6.1-11.5-6.1-4.5 0-8.6 2-10.9 5.4l-2.1 3-2-3c-2.3-3.4-6.4-5.4-10.9-5.4-4.9 0-9.2 2.3-11.5 6.1-5 8.3 1.5 16.5 9.3 24.1 3.2 3.2 11.3 10.2 15.1 13.4 1.2-1 2.8-2.4 4.6-4-2.1-2.6-3.3-6-3.3-9.6 0-8.7 7-15.7 15.7-15.7C69.3 42.5 72.1 43.4 74.5 44.9z" fill="#000000" data-fill-palette-color="accent"></path><path d="M66.8 62.2v-2.5c0.6 0.2 1 0.5 1 1.3C67.8 61.6 67.4 62.2 66.8 62.2z" fill="#000000" data-fill-palette-color="accent"></path><path d="M64.7 55.4c0-0.6 0.4-1.1 1-1.2v2.2C65.2 56.4 64.7 56 64.7 55.4z" fill="#000000" data-fill-palette-color="accent"></path></g></g></g></g></g></svg></g></svg></g></svg></g></svg></g><g></g></svg></g></svg></g></svg></g><defs></defs></svg><rect width="395.52" height="247.2" fill="none" stroke="none" visibility="hidden"></rect></g></svg></g></svg>